<svg xmlns="http://www.w3.org/2000/svg" width="65" height="65" viewBox="0 0 65 65" fill="none"><g clip-path="url(#clip0_2582_9775)"><path d="M62.791 57.4527L54.5846 57.4526V47.3385L58.6979 49.7197C59.3218 50.0808 60.1269 49.6165 60.1269 48.8958V30.5396C65.5674 26.8882 66.6935 18.7204 62.1914 13.7226C61.381 12.7961 59.948 14.0497 60.7584 14.9762C66.0947 21.0262 61.7048 30.7032 53.6326 30.6775C48.4123 30.6775 44.1652 26.4292 44.1652 21.2074C44.0731 14.6728 50.9743 9.93487 57.0335 12.3694C58.1821 12.812 58.8666 11.0354 57.7181 10.5927C56.7078 10.2035 55.6574 9.96254 54.5847 9.87305V6.607C54.5847 2.97031 51.6225 0.0116904 47.9814 0.0116904C47.7449 0.0469771 6.13863 -0.0549481 5.94201 0.0460886C2.6177 0.386009 0.015625 3.19892 0.015625 6.60751C0.015625 7.13326 0.441858 7.55949 0.967604 7.55949H11.3194V58.4047C11.3194 62.0414 14.2816 65 17.9227 65H57.1396C60.7807 65 63.7429 62.0413 63.7429 58.4047C63.743 57.879 63.3169 57.4527 62.791 57.4527ZM49.0424 31.6133C50.3394 32.188 51.7631 32.5269 53.2588 32.5755V37.4717L49.0424 39.5445V31.6133ZM58.2229 47.2448L52.7373 44.069V39.8497L54.6308 38.9188C54.9565 38.7588 55.1628 38.4274 55.1628 38.0646V32.479C56.2374 32.3338 57.2647 32.0379 58.2229 31.6135V47.2448ZM43.3025 16.454H20.4376V9.44885H45.6755V12.9515C45.6755 12.9954 45.6785 13.0387 45.6842 13.0811C44.6987 14.0455 43.8875 15.1873 43.3025 16.454ZM2.01681 5.65553C3.13342 0.693815 10.1075 0.697242 11.2222 5.65553H2.01681ZM57.1397 63.0961H22.5605C23.5601 62.1103 24.2476 60.8091 24.4586 59.3562H28.4463C29.6771 59.3562 29.6771 57.4522 28.4463 57.4522H23.5753C22.9951 57.5067 22.6778 57.824 22.6234 58.4042C22.3635 64.6234 13.4888 64.6358 13.2234 58.4047V6.60751C13.2234 4.77362 12.4702 3.11222 11.2566 1.91565H47.9812C50.5724 1.91565 52.6805 4.02028 52.6805 6.607V9.87305C50.8173 10.0283 49.0803 10.6346 47.5792 11.5826V8.49687C47.5792 7.97113 47.1529 7.54489 46.6272 7.54489H19.4856C18.9599 7.54489 18.5337 7.97113 18.5337 8.49687V17.406C18.5337 17.9317 18.9599 18.358 19.4856 18.358H42.6225C41.3693 22.898 43.3983 28.0372 47.1385 30.5395V41.0732C47.1385 41.7661 47.8902 42.2327 48.5105 41.9275L50.8333 40.7856V44.6179C50.8333 44.9576 51.0143 45.2716 51.3083 45.4418L52.6806 46.2364V57.4526L33.5143 57.4523C32.2834 57.4523 32.2834 59.3563 33.5143 59.3563L61.7418 59.3567C61.3 61.4887 59.4044 63.0961 57.1397 63.0961Z" fill="#515151"></path><path d="M21.1716 26.4313H37.3431C38.6036 26.3876 38.6026 24.5706 37.3431 24.5273H21.1716C19.911 24.571 19.9121 26.388 21.1716 26.4313Z" fill="#515151"></path><path d="M21.1716 32.6725H32.21C33.4705 32.6289 33.4695 30.8118 32.21 30.7686H21.1716C19.911 30.8122 19.9121 32.6292 21.1716 32.6725Z" fill="#515151"></path><path d="M21.1716 38.9137H42.0674C43.328 38.8701 43.3269 37.053 42.0674 37.0098H21.1716C19.911 37.0534 19.9121 38.8704 21.1716 38.9137Z" fill="#515151"></path><path d="M34.9975 51.5987C35.6957 51.3172 36.3805 50.9927 37.0338 50.618C38.0964 50.0085 37.1385 48.3627 36.0728 48.974C35.5672 49.2641 35.0415 49.533 34.5038 49.7578C34.1602 49.9015 33.7936 50.0422 33.4254 50.1122C33.3203 49.3595 33.1394 48.3502 32.1572 48.0421C31.3568 47.7911 30.6269 48.1688 29.9354 48.5341C29.3625 48.8368 28.7366 49.2307 28.1688 49.4716C28.5826 47.2941 27.6759 45.265 25.1622 46.6036C23.3598 47.5635 21.7407 49.2263 20.4933 50.8216C20.1743 51.2296 20.1027 51.7688 20.4933 52.168C20.8193 52.5012 21.5235 52.5723 21.8397 52.168C22.9159 50.7913 24.234 49.4282 25.7157 48.4879C25.9581 48.3607 26.2002 48.2335 26.4426 48.1063C26.4148 48.3568 26.3868 48.6073 26.359 48.8578C26.2527 49.4165 26.0757 50.0431 26.2492 50.6081C26.8555 52.582 29.4314 50.9769 30.4764 50.4056C30.785 50.2369 31.093 50.0578 31.4161 49.918C31.3696 49.9382 31.4294 49.9328 31.4946 49.9142C31.502 49.9527 31.5073 49.9835 31.5077 49.9859C31.5825 50.6436 31.6437 51.396 32.2595 51.789C33.0687 52.318 34.188 51.9252 34.9975 51.5987ZM31.4506 49.7561C31.4522 49.7551 31.454 49.7566 31.4561 49.7599C31.4531 49.7572 31.4511 49.7557 31.4506 49.7561Z" fill="#515151"></path><path d="M53.6308 14.7178C50.0564 14.7178 47.1484 17.6292 47.1484 21.2076C47.5046 29.8173 59.7585 29.8146 60.1134 21.2076C60.1133 17.6291 57.2051 14.7178 53.6308 14.7178ZM53.6308 25.7934C51.1063 25.7934 49.0524 23.7362 49.0524 21.2076C49.304 15.1237 57.9587 15.1256 58.2094 21.2076C58.2093 23.7362 56.1553 25.7934 53.6308 25.7934Z" fill="#515151"></path></g><defs><clipPath id="clip0_2582_9775"><rect width="65" height="65" fill="white"></rect></clipPath></defs></svg>