<svg xmlns="http://www.w3.org/2000/svg" width="66" height="65" viewBox="0 0 66 65" fill="none"><g clip-path="url(#clip0_2582_9793)"><path d="M49.2259 28.3391C49.7496 28.4442 50.26 28.1117 50.3671 27.5949C50.6062 26.4414 50.7272 25.2545 50.7272 24.0667C50.7272 14.4111 42.775 6.55566 33.0003 6.55566C23.2257 6.55566 15.2734 14.4111 15.2734 24.0667C15.2734 33.7222 23.2257 41.5777 33.0003 41.5777C39.6628 41.5777 45.7019 37.9423 48.7609 32.0902C49.0058 31.6215 48.8199 31.0453 48.3454 30.8033C47.8709 30.5611 47.2876 30.7451 47.0426 31.2136C44.3169 36.428 38.9363 39.6673 33.0005 39.6673C24.2921 39.6673 17.2074 32.6688 17.2074 24.0665C17.2074 15.4642 24.2921 8.46579 33.0005 8.46579C41.7088 8.46579 48.7935 15.4642 48.7935 24.0665C48.7935 25.1258 48.6856 26.184 48.4726 27.2117C48.3655 27.7286 48.7029 28.2333 49.2259 28.3391Z" fill="#515151"></path><path d="M43.7627 20.5148C43.6488 20.1683 43.3453 19.9162 42.9803 19.8645L36.6785 18.9728L33.8727 13.3278C33.5522 12.6263 32.4571 12.6265 32.1367 13.3278L29.3308 18.9726L23.0291 19.8644C22.2537 19.9488 21.9169 20.9781 22.4926 21.495L27.0602 25.8755L25.9714 32.0713C25.813 32.8235 26.6977 33.4611 27.3757 33.0793L33.0046 30.1416L38.6335 33.0793C39.3105 33.4611 40.1966 32.8235 40.0379 32.0713L38.949 25.8755L43.5166 21.495C43.7813 21.2415 43.8767 20.8612 43.7627 20.5148ZM37.2355 24.8565C37.0061 25.0765 36.9017 25.394 36.9562 25.7052L37.7957 30.4817L33.4562 28.2169C33.1736 28.0695 32.8355 28.0695 32.5529 28.2169L28.2135 30.4817L29.0529 25.7052C29.1075 25.394 29.003 25.0765 28.7736 24.8565L25.2524 21.4795L30.1106 20.792C30.4269 20.7472 30.7005 20.551 30.8414 20.2675L33.0045 15.9159L35.1676 20.2675C35.3085 20.5509 35.582 20.7472 35.8984 20.792L40.7566 21.4795L37.2355 24.8565Z" fill="#515151"></path><path d="M60.1366 56.7748L50.6859 40.605C54.8241 36.2895 57.3661 30.4662 57.3661 24.0669C57.3659 10.7963 46.4365 0 33.0022 0C28.8688 0 24.7853 1.04128 21.1929 3.01133C20.7259 3.26743 20.5576 3.84883 20.8168 4.31011C21.076 4.77113 21.6646 4.93746 22.1315 4.68162C25.4374 2.86862 29.1964 1.91038 33.0022 1.91038C45.3702 1.91038 55.4321 11.8499 55.4321 24.0671C55.4321 36.2843 45.3702 46.2239 33.0022 46.2239C20.6343 46.2239 10.5724 36.2843 10.5724 24.0669C10.5724 17.5128 13.4869 11.3308 18.5689 7.10623C18.9775 6.76658 19.03 6.16399 18.6861 5.76048C18.3423 5.35684 17.7324 5.30478 17.3238 5.64468C11.8042 10.233 8.63852 16.9476 8.63852 24.0669C8.63852 30.4771 11.189 36.3096 15.3397 40.6273L12.6631 45.2067C12.0217 46.2669 13.7189 47.2471 14.3378 46.1619L16.771 41.999C19.6819 44.5728 23.2206 46.4664 27.1293 47.4256L18.7855 61.7013L16.6512 55.0658C16.5 54.5953 16.0106 54.3165 15.5225 54.422L8.63788 55.9139L12.0814 50.0222C12.3484 49.5653 12.19 48.9811 11.7275 48.7174C11.2649 48.4537 10.6737 48.6101 10.4067 49.067L5.86758 56.8332C5.43698 57.5154 6.12079 58.4424 6.91212 58.2438L15.0751 56.4748L17.6058 64.3425C17.827 65.1165 18.9783 65.2426 19.3646 64.5308L29.1266 47.8284C30.389 48.0286 31.6831 48.1341 33.0019 48.1341C34.3314 48.1341 35.6359 48.0267 36.9082 47.8233L42.7712 57.8548C42.9503 58.1613 43.2753 58.3324 43.6095 58.3324C43.7735 58.3324 43.9398 58.2912 44.0921 58.2043C44.5545 57.9405 44.7129 57.3564 44.4459 56.8996L38.9046 47.4184C42.8116 46.4543 46.3478 44.5565 49.2555 41.9792L57.366 55.8556L50.4813 54.3638C49.9932 54.258 49.504 54.5371 49.3526 55.0075L47.2183 61.643L46.7021 60.7598C46.4351 60.303 45.8437 60.1466 45.3813 60.4103C44.9188 60.6741 44.7604 61.2582 45.0274 61.715L46.6391 64.4727C47.0256 65.1846 48.1767 65.0583 48.3979 64.2844L50.9286 56.4166L59.0916 58.1857C59.8837 58.3835 60.567 57.4571 60.1366 56.7748Z" fill="#515151"></path></g><defs><clipPath id="clip0_2582_9793"><rect width="66" height="65" fill="white"></rect></clipPath></defs></svg>