<svg xmlns="http://www.w3.org/2000/svg" width="68" height="68" viewBox="0 0 68 68" fill="none"><g clip-path="url(#clip0_6_1059)"><path d="M43.7355 45.0797C43.4644 44.2452 42.7222 43.7061 41.8449 43.7061H37.2962L35.8905 39.38C35.6193 38.5457 34.8774 38.0065 34 38.0065C33.1227 38.0065 32.3806 38.5457 32.1096 39.38L30.7039 43.7061H26.1552C25.2778 43.7061 24.5357 44.2453 24.2646 45.0797C23.9934 45.9141 24.277 46.7866 24.9868 47.3021L28.6668 49.9757L27.2613 54.3018C26.9901 55.1362 27.2736 56.0085 27.9834 56.5243C28.693 57.04 29.6103 57.04 30.3202 56.5243L34.0002 53.8506L37.6801 56.5243C38.035 56.782 38.4418 56.911 38.8485 56.911C39.2553 56.911 39.6621 56.782 40.017 56.5241C40.7267 56.0084 41.0103 55.1361 40.7391 54.3016L39.3335 49.9755L43.0135 47.302C43.7232 46.7866 44.0067 45.9141 43.7355 45.0797V45.0797ZM37.5769 48.7894C37.2278 49.0431 37.0817 49.4926 37.215 49.9031L38.8391 54.9039L34.5855 51.8135C34.4109 51.6867 34.2055 51.6232 34 51.6232C33.7946 51.6232 33.5891 51.6867 33.4146 51.8135L29.1603 54.9034L30.785 49.903C30.9184 49.4926 30.7723 49.0429 30.4231 48.7893L26.1698 45.6982H31.4275C31.859 45.6982 32.2415 45.4203 32.3748 45.0099L34.0003 40.0097L35.625 45.0099C35.7583 45.4203 36.1408 45.6982 36.5723 45.6982L41.8303 45.699L37.5769 48.7894Z" fill="#515151"></path><path d="M41.3839 29.0814V26.5478C41.3839 25.3888 40.7494 24.3759 39.8097 23.8363L54.004 1.53132C54.2994 1.06727 54.1625 0.451554 53.6984 0.15618C53.2344 -0.139195 52.6187 -0.00239806 52.3233 0.461781L38.2586 22.5633L35.1807 17.7267L45.4868 1.53145C45.7822 1.0674 45.6452 0.451687 45.1812 0.156313C44.7173 -0.139062 44.1016 -0.00226522 43.8061 0.461913L34.0001 15.8713L24.1941 0.461781C23.8987 -0.00239806 23.283 -0.139062 22.8189 0.15618C22.3547 0.451554 22.2179 1.06727 22.5133 1.53132L36.4441 23.4226H34.5469L19.9356 0.461781C19.6402 -0.00239806 19.0246 -0.139062 18.5604 0.15618C18.0963 0.451554 17.9595 1.06727 18.2548 1.53132L32.1856 23.4226H30.2884L15.6769 0.461781C15.3816 -0.00239806 14.766 -0.139062 14.3018 0.15618C13.8376 0.451554 13.7008 1.06727 13.9962 1.53132L28.1904 23.8365C27.2509 24.3761 26.6162 25.3889 26.6162 26.548V29.0815C19.142 32.0338 13.8404 39.3298 13.8404 47.8408C13.8404 58.9569 22.884 68.0005 34.0001 68.0005C45.1162 68.0005 54.1598 58.9569 54.1598 47.8408C54.1597 39.3297 48.8582 32.0336 41.3839 29.0814V29.0814ZM28.6083 26.5478C28.6083 25.9232 29.1163 25.4151 29.7408 25.4147C29.7414 25.4147 29.7419 25.4148 29.7424 25.4148C29.7431 25.4148 29.7436 25.4147 29.7443 25.4147H38.2558C38.2565 25.4147 38.2572 25.4148 38.2577 25.4148H38.2586C38.2586 25.4148 38.2591 25.4148 38.2595 25.4148H38.2602C38.8843 25.4157 39.3918 25.9236 39.3918 26.548V28.4144C37.6749 27.9373 35.8669 27.6811 34 27.6811C32.133 27.6811 30.3252 27.9373 28.6082 28.4144V26.5478H28.6083ZM34.0001 66.0081C23.9825 66.0081 15.8326 57.8582 15.8326 47.8405C15.8326 37.823 23.9825 29.6732 34.0001 29.6732C44.0178 29.6732 52.1676 37.823 52.1676 47.8405C52.1675 57.8583 44.0176 66.0081 34.0001 66.0081Z" fill="#515151"></path><path d="M38.044 18.0637C38.2097 18.1691 38.3949 18.2195 38.5778 18.2195C38.907 18.2195 39.2292 18.0564 39.4191 17.758L49.7454 1.53092C50.0408 1.06688 49.9039 0.451158 49.4398 0.155783C48.9758 -0.139592 48.3601 -0.00279479 48.0647 0.461385L37.7384 16.6884C37.443 17.1526 37.5798 17.7683 38.044 18.0637Z" fill="#515151"></path><path d="M42.3169 58.9685C39.6643 60.9557 36.3754 61.9293 33.0545 61.7094C29.7014 61.4876 26.5444 60.0549 24.1649 57.6755C21.7855 55.296 20.3528 52.139 20.131 48.7859C19.9113 45.4656 20.8847 42.1762 22.8719 39.5234C23.2016 39.0832 23.1121 38.4588 22.6719 38.1291C22.2314 37.7991 21.6072 37.8888 21.2775 38.3291C19.0052 41.3624 17.8921 45.1227 18.1431 48.9174C18.3969 52.7525 20.0351 56.3631 22.7562 59.0841C25.4771 61.8051 29.0878 63.4434 32.9229 63.6971C33.2747 63.7203 33.6257 63.7319 33.9763 63.7319C37.4081 63.7317 40.7591 62.6243 43.5112 60.5628C43.9515 60.233 44.041 59.6087 43.7112 59.1684C43.3816 58.7283 42.7572 58.6386 42.3169 58.9685Z" fill="#515151"></path><path d="M49.8569 46.7633C49.6031 42.9282 47.9648 39.3176 45.2438 36.5967C42.5228 33.8756 38.9122 32.2374 35.0771 31.9837C31.2831 31.7328 27.5221 32.8456 24.4888 35.1179C24.0485 35.4477 23.959 36.0721 24.2888 36.5123C24.6185 36.9526 25.2429 37.0423 25.6832 36.7123C28.3359 34.7253 31.6252 33.7518 34.9456 33.9715C38.2987 34.1933 41.4557 35.6259 43.8352 38.0054C46.2146 40.3849 47.6473 43.5418 47.8691 46.8949C48.0888 50.2153 47.1154 53.5046 45.1282 56.1574C44.7985 56.5977 44.888 57.2221 45.3282 57.5518C45.5074 57.686 45.7169 57.7508 45.9247 57.7508C46.2278 57.7508 46.527 57.6129 46.7226 57.3518C48.9948 54.3184 50.1079 50.5581 49.8569 46.7633V46.7633Z" fill="#515151"></path></g><defs><clipPath id="clip0_6_1059"><rect width="68" height="68" fill="white"></rect></clipPath></defs></svg>