<svg xmlns="http://www.w3.org/2000/svg" width="68" height="68" viewBox="0 0 68 68" fill="none"><g clip-path="url(#clip0_6_1092)"><path d="M54.0458 18.759C50.266 17.4528 47.2541 14.694 45.7826 11.1901C45.5466 10.6275 45.0022 10.2639 44.3958 10.2639H23.6033C22.9973 10.2639 22.4529 10.6273 22.2166 11.1897C20.7449 14.694 17.7332 17.4529 13.9536 18.759C13.3454 18.9689 12.9368 19.54 12.9368 20.1802V25.6138C12.9368 26.6532 12.9882 27.7063 13.0896 28.7437C13.1402 29.2611 13.576 29.6479 14.0852 29.6479C14.1177 29.6479 14.1507 29.6461 14.1837 29.6431C14.7343 29.5893 15.1368 29.0994 15.083 28.549C14.9878 27.576 14.9396 26.5885 14.9396 25.614V20.5335C18.9943 19.036 22.2439 16.0489 23.9326 12.2668H44.0666C45.7554 16.0491 49.0052 19.036 53.0597 20.5335V25.614C53.0597 26.5772 53.0125 27.5537 52.9196 28.5163C52.8663 29.0668 53.2694 29.5562 53.8199 29.6094C54.3699 29.6638 54.8598 29.2595 54.913 28.709C55.0122 27.6826 55.0625 26.6414 55.0625 25.614V20.1803C55.0625 19.5404 54.6541 18.9693 54.0458 18.759Z" fill="#515151"></path><path d="M53.3569 32.285C52.8206 32.1509 52.2766 32.4765 52.1421 33.0129C51.3205 36.291 49.9662 39.4302 48.1168 42.343C44.833 47.5153 40.0661 51.8423 34.3317 54.8564L33.9998 55.0309L33.6677 54.8564C27.9334 51.8423 23.1666 47.5153 19.8828 42.343C18.0305 39.4253 16.6749 36.2811 15.8538 32.9977C15.7197 32.461 15.1754 32.1356 14.6394 32.2691C14.1028 32.4032 13.7765 32.9469 13.9108 33.4835C14.7842 36.9754 16.2245 40.3175 18.192 43.4164C21.6632 48.8838 26.6924 53.4527 32.736 56.6291L33.3008 56.926C33.5196 57.0411 33.7598 57.0986 33.9998 57.0986C34.2397 57.0986 34.4799 57.0411 34.6985 56.9261L35.2633 56.6291C41.3071 53.4525 46.3364 48.8836 49.8076 43.4164C51.7719 40.3226 53.2109 36.986 54.0849 33.4998C54.2193 32.9635 53.8935 32.4197 53.3569 32.285Z" fill="#515151"></path><path d="M40.8573 38.803H37.9537V17.9359C37.9537 17.192 37.3486 16.5868 36.6046 16.5868H32.5424C32.226 16.5868 31.9182 16.6987 31.675 16.9025L24.295 23.096C23.7356 23.5653 23.6494 24.3841 24.0991 24.9601L26.5198 28.058C26.7429 28.3433 27.0773 28.5292 27.4375 28.5682C27.7978 28.6078 28.1641 28.4972 28.4431 28.2662L30.4576 26.5982V38.803H26.8453C26.1014 38.803 25.496 39.4081 25.496 40.1521V43.8362C25.496 44.5801 26.1013 45.1855 26.8453 45.1855H40.8573C41.6011 45.1855 42.2064 44.5802 42.2064 43.8362V40.1521C42.2064 39.4083 41.6011 38.803 40.8573 38.803ZM40.2034 43.1825H27.499V40.806H31.1115C31.8554 40.806 32.4606 40.2008 32.4606 39.4567V25.2082C32.4606 24.68 32.1636 24.2121 31.6856 23.9873C31.2076 23.7624 30.6578 23.8321 30.2511 24.169L27.6837 26.2946L26.0662 24.2243L32.7804 18.5896H35.9509V39.4567C35.9509 40.2006 36.5561 40.806 37.3 40.806H40.2034V43.1825Z" fill="#515151"></path><path d="M67.9928 39.9418C67.9474 39.5225 67.6929 39.1646 67.3116 38.9842C64.4854 37.6473 61.5877 36.469 58.6848 35.4718C59.562 32.2584 60.0127 28.9469 60.0127 25.6138V16.1616C60.0127 15.3367 59.3653 14.6614 58.5395 14.6247C53.7916 14.4107 50.0192 11.0333 49.7645 6.76893C49.716 5.95306 49.0408 5.31396 48.2274 5.31396H19.7719C18.9586 5.31396 18.2834 5.95306 18.2349 6.76866C17.9803 11.0334 14.2078 14.4107 9.46024 14.6247C8.63388 14.6616 7.98669 15.3368 7.98669 16.1616V25.6138C7.98669 28.947 8.43732 32.2584 9.31455 35.472C6.41206 36.4689 3.51449 37.6472 0.687977 38.9842C0.306672 39.1648 0.0522033 39.523 0.00704707 39.9426C-0.0379764 40.362 0.13468 40.7663 0.469367 41.0239C1.48711 41.8069 2.51256 42.636 3.53694 43.5022C3.62167 43.5739 3.70654 43.6455 3.79141 43.7178C3.91652 43.8243 4.04163 43.9319 4.16673 44.0396C4.24748 44.109 4.3281 44.1782 4.40885 44.2482C4.54591 44.3671 4.68284 44.487 4.81977 44.6071C4.88751 44.6664 4.95524 44.7254 5.02298 44.785C5.22764 44.9655 5.43204 45.1472 5.63617 45.3305C5.44333 45.9584 5.25274 46.5905 5.06481 47.2231C5.00996 47.4078 4.9567 47.5931 4.90238 47.7781C4.78697 48.1706 4.67063 48.5634 4.558 48.9546C4.55627 48.9603 4.55588 48.9663 4.55428 48.972C4.15027 50.3755 3.75966 51.782 3.38752 53.1819C3.26799 53.6316 3.42139 54.1151 3.77866 54.4134C3.99859 54.5971 4.27378 54.6925 4.55123 54.6925C4.72468 54.6923 4.89893 54.6551 5.06109 54.579C8.97189 52.7429 12.9881 51.2675 17.0086 50.1879C20.6287 54.5656 25.1959 58.2587 30.4328 61.0112L33.2836 62.5095C33.5078 62.6273 33.7535 62.6861 33.9995 62.6861C34.2454 62.6861 34.4914 62.6272 34.7156 62.5094L37.5663 61.0112C42.8032 58.2587 47.3702 54.5656 50.9904 50.1879C55.0108 51.2675 59.0269 52.7428 62.938 54.5792C63.1002 54.6553 63.2745 54.6925 63.448 54.6925C63.7254 54.6925 64.0008 54.5972 64.2206 54.4136C64.5778 54.1153 64.7314 53.6317 64.6117 53.1821C64.2265 51.7331 63.8213 50.2778 63.4023 48.8259C63.401 48.8211 63.4006 48.8163 63.3993 48.8117C63.272 48.371 63.1435 47.9323 63.0144 47.4954C62.981 47.3826 62.948 47.27 62.9145 47.1573C62.7328 46.546 62.55 45.9401 62.367 45.3438C62.3656 45.339 62.3641 45.3342 62.3626 45.3294C62.4757 45.2277 62.5906 45.1261 62.7048 45.0245C62.7888 44.9496 62.8724 44.8744 62.957 44.7998C63.062 44.707 63.1686 44.6145 63.2745 44.5219C63.3738 44.4352 63.4726 44.3482 63.5724 44.2616C63.6655 44.1809 63.7597 44.1008 63.8533 44.0203C63.9686 43.9212 64.0836 43.8222 64.1997 43.7233C64.2851 43.6507 64.3712 43.5787 64.4568 43.5065C65.4561 42.6634 66.4833 41.8332 67.5317 41.0234C67.866 40.7653 68.0383 40.3612 67.9928 39.9418ZM4.15053 41.4036C3.67559 41.0099 3.20066 40.6232 2.72665 40.2466C5.08553 39.1757 7.48745 38.2184 9.89281 37.3896C10.0738 37.9378 10.2683 38.4824 10.4745 39.0234C9.49584 39.3602 8.52205 39.7169 7.57351 40.0863C7.55611 40.0926 5.98002 40.6834 4.15053 41.4036ZM7.35928 44.1877C7.13602 43.9851 6.91237 43.7847 6.68845 43.5852C6.62323 43.527 6.55789 43.4695 6.49255 43.4116C6.32613 43.2642 6.15959 43.1177 5.99291 42.972C5.95665 42.9403 5.92052 42.908 5.88427 42.8764C7.23696 42.3513 8.2652 41.966 8.28791 41.9573C9.2573 41.5799 10.2462 41.219 11.2378 40.8794C11.8927 42.3614 12.6438 43.8102 13.4884 45.2176C12.1898 45.606 10.8909 46.0324 9.61245 46.4906C9.59651 46.4963 9.5807 46.5024 9.5653 46.509C9.54949 46.5155 8.45047 46.9731 7.06271 47.5353C7.09153 47.4388 7.11969 47.3418 7.14864 47.2454C7.1841 47.1272 7.2197 47.0091 7.25529 46.8911C7.40218 46.4042 7.55013 45.9179 7.70008 45.4337C7.83794 44.9889 7.7038 44.4994 7.35928 44.1877ZM5.76646 52.056C5.95625 51.3643 6.15148 50.6722 6.34898 49.9803C8.23545 49.2299 10.0823 48.463 10.3117 48.3677C11.7285 47.8605 13.1705 47.3961 14.6087 46.9782C14.9504 47.4855 15.3039 47.9857 15.669 48.4782C12.3413 49.4154 9.02249 50.6145 5.76646 52.056ZM52.1224 45.2638C52.1211 45.2658 52.1197 45.2679 52.1184 45.2699C48.3791 51.0495 43.0325 55.8754 36.6346 59.2381L33.9996 60.6229L31.3647 59.2381C24.9676 55.8757 19.6213 51.0505 15.882 45.2718C15.88 45.2686 15.8779 45.2654 15.8759 45.2622C15.8185 45.1735 15.7603 45.0853 15.7038 44.9962C11.9656 39.1082 9.98963 32.4059 9.98963 25.6137V16.5977C15.4013 16.1632 19.6819 12.2703 20.1992 7.31664H47.8004C48.3177 12.27 52.5979 16.1632 58.01 16.5977V25.6137C58.01 32.4059 56.034 39.1082 52.2957 44.9962C52.2386 45.086 52.1802 45.1746 52.1224 45.2638ZM60.2993 45.4341C60.3017 45.4419 60.3041 45.4499 60.3066 45.4576C60.4496 45.9197 60.5908 46.3838 60.7312 46.8486C60.7737 46.9892 60.816 47.1296 60.8584 47.271C60.8767 47.3321 60.8945 47.3935 60.9129 47.4546C59.5307 46.9342 58.4275 46.5059 58.4119 46.4998C58.4036 46.4966 58.3954 46.4935 58.387 46.4905C57.1091 46.0324 55.8102 45.606 54.511 45.2173C55.3557 43.8099 56.1068 42.3611 56.7615 40.8792C57.7514 41.2181 58.7397 41.5788 59.7097 41.9564C59.7205 41.9605 59.7312 41.9646 59.7421 41.9684C59.7558 41.9731 60.7754 42.3301 62.1641 42.8312C62.122 42.8678 62.081 42.9047 62.039 42.9412C61.8645 43.0934 61.6909 43.2459 61.5185 43.3987C61.45 43.4594 61.3813 43.5201 61.3132 43.581C61.0865 43.7832 60.8608 43.9858 60.6379 44.1889C60.5521 44.2671 60.4796 44.3562 60.4211 44.4529C60.3039 44.6463 60.2431 44.8699 60.2462 45.096C60.2475 45.2094 60.265 45.3231 60.2993 45.4341ZM52.3304 48.4782C52.6956 47.9857 53.0489 47.4855 53.3908 46.9782C54.8334 47.3975 56.2793 47.8631 57.6992 48.3716C57.8697 48.4379 59.7257 49.1568 61.6141 49.8536C61.8241 50.5876 62.0315 51.3219 62.2332 52.056C58.9769 50.6143 55.6579 49.4153 52.3304 48.4782ZM63.9262 41.3402C62.1118 40.6778 60.5945 40.145 60.4205 40.084C59.4673 39.7132 58.4971 39.3579 57.525 39.0234C57.7312 38.4823 57.9256 37.9376 58.1067 37.3894C60.5127 38.2184 62.9153 39.176 65.2746 40.2472C64.8203 40.6084 64.371 40.9729 63.9262 41.3402Z" fill="#515151"></path></g><defs><clipPath id="clip0_6_1092"><rect width="68" height="68" fill="white"></rect></clipPath></defs></svg>