<svg xmlns="http://www.w3.org/2000/svg" width="63" height="63" viewBox="0 0 63 63" fill="none"><g clip-path="url(#clip0_391_838)"><path d="M57.9449 4.58301H49.8926C49.3829 4.58301 48.9697 4.9962 48.9697 5.50586C48.9697 6.01552 49.3829 6.42871 49.8926 6.42871H57.9449C58.4545 6.42871 58.8677 6.01552 58.8677 5.50586C58.8677 4.9962 58.4547 4.58301 57.9449 4.58301Z" fill="white"></path><path d="M45.3203 6.42871H46.3019C46.8115 6.42871 47.2247 6.01552 47.2247 5.50586C47.2247 4.9962 46.8115 4.58301 46.3019 4.58301H45.3203C44.8107 4.58301 44.3975 4.9962 44.3975 5.50586C44.3975 6.01552 44.8107 6.42871 45.3203 6.42871Z" fill="white"></path><path d="M45.3203 10.7646H57.9454C58.4551 10.7646 58.8683 10.3515 58.8683 9.8418C58.8683 9.33214 58.4551 8.91895 57.9454 8.91895H45.3203C44.8107 8.91895 44.3975 9.33214 44.3975 9.8418C44.3975 10.3515 44.8107 10.7646 45.3203 10.7646Z" fill="white"></path><path d="M48.658 54.6446C48.658 50.9582 47.4273 47.3417 45.1856 44.4197L45.3567 41.2691C45.4731 39.1244 43.7711 37.31 41.6065 37.31H31.5046C31.0398 36.9816 30.7579 36.4481 30.7579 35.872V33.2953C32.3242 32.2824 33.4238 31.1272 34.2316 29.7526H36.0175C38.0836 29.7526 39.7644 28.0717 39.7644 26.0057V19.1135C39.7644 17.9511 39.092 16.9236 38.0863 16.4374V11.6004C38.0863 9.39838 36.2949 7.60682 34.0928 7.60682H33.9894C33.9264 7.60682 33.8752 7.55551 33.8752 7.49263C33.8752 5.29059 32.0836 3.49902 29.8816 3.49902H20.1081C15.2567 3.49902 11.3097 7.446 11.3097 12.2974V16.4373C10.3042 16.9234 9.63162 17.951 9.63162 19.1134V22.6185C9.63162 24.2585 10.9658 25.5927 12.6058 25.5927H13.7971C14.1055 28.2008 15.3289 30.5827 17.2453 32.2387C17.6949 32.6273 18.1599 32.9744 18.6382 33.2845V35.8719C18.6382 36.4463 18.3551 36.9798 17.8883 37.3098H7.78997C5.64207 37.3098 3.92249 39.1076 4.03988 41.269L4.21091 44.4196C1.96912 47.3417 0.738404 50.9582 0.738404 54.6446V58.1205C0.279562 58.6347 0 59.3121 0 60.0538C0 61.6569 1.30417 62.9609 2.90723 62.9609H46.4892C48.0923 62.9609 49.3964 61.6568 49.3964 60.0538C49.3964 59.3121 49.1169 58.6347 48.658 58.1206V54.6446ZM46.8123 54.6446V57.1649C46.7061 57.1531 46.5985 57.1466 46.4892 57.1466H44.4949L45.0157 47.5502C46.1838 49.7196 46.8123 52.1637 46.8123 54.6446ZM37.8241 18.663C37.8848 18.8017 37.919 18.9541 37.919 19.1137V22.6188C37.919 23.241 37.4128 23.7472 36.7905 23.7472H35.6931V20.2683L36.2618 20.0702C36.9654 19.8251 37.5187 19.3083 37.8241 18.663ZM31.6628 29.3555H29.3468C28.9735 29.3555 28.6697 29.0518 28.6697 28.6785C28.6697 28.3052 28.9735 28.0015 29.3468 28.0015H31.6628C32.0361 28.0015 32.3398 28.3052 32.3398 28.6785C32.3398 29.0518 32.0361 29.3555 31.6628 29.3555ZM36.0178 27.907H35.085C35.3448 27.166 35.5242 26.3898 35.6189 25.593H36.7905C37.1898 25.593 37.5708 25.5133 37.919 25.37V26.0059C37.919 27.0541 37.066 27.907 36.0178 27.907ZM13.1557 12.2976C13.1557 8.46396 16.2747 5.34497 20.1083 5.34497H29.8818C31.0661 5.34497 32.0297 6.30855 32.0297 7.49288C32.0297 8.5736 32.909 9.45277 33.9896 9.45277H34.0931C35.2774 9.45277 36.2409 10.4163 36.2409 11.6007V17.5024C36.2409 17.8737 36.0052 18.2052 35.6546 18.3274L33.7152 19.0028C33.6371 19.0299 33.5565 18.9735 33.5565 18.8895L33.5601 15.2222C33.5712 12.5458 31.0652 10.2116 27.5539 11.3394C25.7879 11.9069 23.6025 11.905 21.8424 11.3394C18.3676 10.2227 15.8251 12.5154 15.8363 15.2194L15.8406 18.8897C15.8406 18.9744 15.7581 19.0301 15.6818 19.0028L13.7419 18.3273C13.3912 18.2052 13.1556 17.8736 13.1556 17.5022V12.2976H13.1557ZM11.4776 22.6188V19.1135C11.4776 18.9541 11.5118 18.8016 11.5724 18.6628C11.878 19.3083 12.4313 19.8251 13.1351 20.0702L13.7037 20.2682V23.7471H12.6062C11.9838 23.7472 11.4776 23.2409 11.4776 22.6188ZM15.5663 24.527C15.5357 23.3138 15.5545 22.0259 15.5493 20.8469C15.6062 20.8518 15.6631 20.8547 15.7201 20.8547C16.8173 20.8547 17.6881 19.9628 17.6863 18.887L17.682 15.2143C17.6757 13.7159 19.0198 12.3708 21.2778 13.0966C23.4178 13.7841 25.9855 13.7821 28.1185 13.0966C30.2698 12.4054 31.721 13.6222 31.7143 15.2174L31.7108 18.8873C31.7093 20.0311 32.687 20.9476 33.8471 20.8469V24.6017C33.8203 25.3993 33.689 26.1777 33.4663 26.9179C33.0079 26.4484 32.3692 26.1556 31.6628 26.1556H29.3468C27.9558 26.1556 26.824 27.2873 26.824 28.6784C26.824 30.0694 27.9558 31.2011 29.3468 31.2011H30.5193C28.8147 32.5316 26.8764 33.2253 24.7466 33.2606C20.0875 33.2233 15.6996 29.7813 15.5663 24.527ZM20.4842 35.8722V34.2574C21.8182 34.8098 23.2412 35.096 24.7441 35.1066H24.7506C24.7554 35.1066 24.7602 35.1066 24.765 35.1064C26.2282 35.0837 27.6134 34.8002 28.9126 34.2649V35.872C28.9126 36.3759 29.018 36.8637 29.2122 37.31H20.1835C20.3783 36.8635 20.4842 36.3757 20.4842 35.8722ZM4.38071 47.5502L4.5264 50.2352C4.55409 50.7442 4.99004 51.1356 5.49786 51.1067C6.00678 51.0792 6.39696 50.6442 6.3694 50.1353L5.88275 41.1692C5.82356 40.0785 6.68907 39.1558 7.78997 39.1558H41.6066C42.6994 39.1558 43.5734 40.0703 43.5138 41.1692L42.6466 57.1467H28.1753C28.3516 56.0926 28.8263 55.1011 29.5576 54.2887L29.584 54.2592C32.3774 51.134 31.5413 46.2471 27.9307 44.1954C27.0041 43.669 25.8274 44.3255 25.8274 45.4168V49.6041C25.8274 49.796 25.6713 49.952 25.4793 49.952H23.9171C23.7252 49.952 23.569 49.7959 23.569 49.6041V45.4168C23.569 44.3276 22.3942 43.6679 21.4658 44.1954C17.8447 46.2528 17.0256 51.1415 19.8152 54.2623L19.8388 54.2887C20.5701 55.1009 21.0448 56.0925 21.2212 57.1466H6.74998L6.60196 54.4183C6.57439 53.9094 6.13942 53.5187 5.6305 53.5467C5.12158 53.5743 4.7314 54.0093 4.75896 54.5182L4.90157 57.1466H2.90723C2.79796 57.1466 2.6903 57.1532 2.58411 57.1649V54.6446C2.58411 52.1638 3.21275 49.7196 4.38071 47.5502ZM23.0859 57.1466C22.8971 55.6345 22.2488 54.207 21.2108 53.0539L21.1885 53.029C19.4055 51.0344 19.6443 47.95 21.7234 46.2488V49.604C21.7234 50.8136 22.7076 51.7976 23.9172 51.7976H25.4794C26.6891 51.7976 27.6732 50.8135 27.6732 49.604V46.2488C29.7386 47.9386 30.0031 51.0208 28.2058 53.0315L28.1859 53.0538C27.1477 54.207 26.4995 55.6345 26.3106 57.1466H23.0859ZM46.4892 61.1154H2.90723C2.32189 61.1154 1.8457 60.6392 1.8457 60.054C1.8457 59.4687 2.32189 58.9924 2.90723 58.9924H46.4892C47.0745 58.9924 47.5507 59.4686 47.5507 60.054C47.5507 60.6393 47.0745 61.1154 46.4892 61.1154Z" fill="white"></path><path d="M62.077 6.35371C62.5867 6.35371 62.9999 5.94052 62.9999 5.43086V3.64471C62.9999 1.65603 61.382 0.0380859 59.3931 0.0380859H43.8719C41.8831 0.0380859 40.2651 1.65603 40.2651 3.64471V11.4075C40.2651 13.3963 41.8831 15.0142 43.8719 15.0142C44.2272 15.0142 44.5164 15.3034 44.5164 15.6588V20.4594C44.5164 21.1528 44.9653 21.7429 45.6336 21.9279C46.3058 22.1139 46.9924 21.8341 47.3469 21.243L50.8943 15.3273C51.0101 15.1342 51.222 15.0142 51.4471 15.0142H59.3933C61.3821 15.0142 63 13.3963 63 11.4075V9.74538C63 9.23572 62.5868 8.82253 62.0772 8.82253C61.5675 8.82253 61.1543 9.23572 61.1543 9.74538V11.4075C61.1543 12.3786 60.3644 13.1685 59.3933 13.1685H51.447C50.5771 13.1685 49.7587 13.6321 49.3113 14.3781L46.362 19.2963V15.6588C46.362 14.2857 45.2448 13.1685 43.8718 13.1685C42.9007 13.1685 42.1107 12.3786 42.1107 11.4075V3.64471C42.1107 2.67375 42.9007 1.88379 43.8718 1.88379H59.3931C60.3642 1.88379 61.1542 2.67375 61.1542 3.64471V5.43086C61.1542 5.94052 61.5674 6.35371 62.077 6.35371Z" fill="white"></path></g><defs><clipPath id="clip0_391_838"><rect width="63" height="63" fill="white"></rect></clipPath></defs></svg>