<svg xmlns="http://www.w3.org/2000/svg" width="63" height="63" viewBox="0 0 63 63" fill="none"><g clip-path="url(#clip0_391_846)"><path d="M13.8066 28.2362C13.8066 37.9895 21.7416 45.9245 31.4949 45.9245C41.2483 45.9245 49.1832 37.9895 49.1832 28.2362C49.1832 22.4599 46.3522 17.0347 41.6102 13.7236C41.1922 13.4318 40.6169 13.534 40.3252 13.952C40.0334 14.3698 40.1356 14.9451 40.5536 15.2369C41.0483 15.5825 41.5189 15.9547 41.9659 16.349L40.3706 17.4774C39.4235 18.1474 38.7455 19.1358 38.4618 20.2605L38.2954 20.9198C38.0831 21.7607 38.263 22.6387 38.7888 23.3284C39.3146 24.0182 40.1136 24.4243 40.9805 24.4426C41.0011 24.443 41.0213 24.4432 41.0417 24.4432C42.2999 24.4432 43.3965 23.6231 43.7535 22.42H46.2272C46.7153 23.6549 47.051 24.9537 47.2167 26.2888L40.8913 25.7422C38.8754 25.5679 37.0444 26.8628 36.5362 28.8208C36.0107 30.8457 37.0838 32.9467 39.0326 33.7076L40.2618 34.1875L41.9134 40.1607C39.1261 42.599 35.4802 44.0787 31.4947 44.0787C22.7591 44.0787 15.6521 36.9718 15.6521 28.2362C15.6521 26.1468 16.0595 24.1511 16.7977 22.323L18.377 25.3997C18.9551 26.5256 20.126 27.2263 21.3727 27.2263C21.5024 27.2263 21.6331 27.2187 21.7639 27.2032C22.9879 27.0582 24.0326 26.2573 24.4905 25.1128L24.8731 24.1562L26.6186 24.1378C27.9501 24.1239 29.0956 23.2094 29.4045 21.9142L30.2025 18.5672C30.4869 17.3738 29.985 16.1257 28.9536 15.4615L25.8217 13.4446C27.584 12.7664 29.4965 12.3936 31.4948 12.3936C33.5139 12.3936 35.4802 12.7679 37.3391 13.506C37.8127 13.6943 38.3493 13.4627 38.5373 12.989C38.7255 12.5153 38.4939 11.9789 38.0203 11.7906C35.9437 10.966 33.7482 10.5479 31.4948 10.5479C21.7416 10.5477 13.8066 18.4828 13.8066 28.2362ZM43.0418 20.5741C42.6216 20.5741 42.2544 20.858 42.1486 21.2647L41.9938 21.8601C41.8785 22.3037 41.4788 22.6088 41.0197 22.5971C40.7178 22.5909 40.4399 22.4495 40.2569 22.2094C40.0739 21.9694 40.0113 21.6638 40.0851 21.3712L40.2515 20.7119C40.4277 20.0136 40.8486 19.4 41.4366 18.9841L43.2953 17.6695C44.0923 18.5606 44.7836 19.5354 45.3577 20.5741H43.0418ZM41.364 32.6362L39.7042 31.9881C38.6259 31.567 38.0321 30.4046 38.3228 29.2843C38.604 28.201 39.6172 27.4845 40.7325 27.5809L47.3362 28.1516C47.3363 28.1798 47.3374 28.2079 47.3374 28.2362C47.3374 32.2246 45.8553 35.873 43.4137 38.661L41.9175 33.25C41.8403 32.9694 41.635 32.742 41.364 32.6362ZM23.8451 14.3669L27.9545 17.0131C28.3284 17.2539 28.5104 17.7064 28.4073 18.139L27.6094 21.486C27.4974 21.9556 27.0821 22.2871 26.5994 22.2921L24.2363 22.317C23.8624 22.3209 23.528 22.55 23.3892 22.897L22.777 24.4273C22.5706 24.9435 22.0993 25.3048 21.5471 25.3703C20.9214 25.4447 20.3072 25.1174 20.0193 24.5568L17.8127 20.258C19.2552 17.7936 21.344 15.752 23.8451 14.3669Z" fill="white"></path><path d="M24.149 40.1598C24.5618 40.3803 25.015 40.4916 25.4699 40.4916C25.8297 40.4916 26.1905 40.4221 26.5332 40.2818C27.309 39.9643 27.8975 39.3234 28.1478 38.5234L29.275 34.9215L30.7529 33.7426C31.4033 33.2238 31.7993 32.4496 31.8394 31.6185C31.8795 30.7876 31.5599 29.9789 30.9625 29.4L29.4409 27.9254C28.6674 27.1759 27.5509 26.9179 26.5274 27.2523L25.0479 27.7354C24.5633 27.8937 24.2989 28.4146 24.4571 28.8992C24.6153 29.3838 25.1363 29.6482 25.6209 29.49L27.1004 29.0069C27.4713 28.8857 27.8762 28.9792 28.1565 29.2509L29.6781 30.7255C29.8979 30.9383 30.0107 31.2239 29.9959 31.5297C29.9812 31.8354 29.8413 32.1089 29.6021 32.2997L27.9032 33.6547C27.7592 33.7695 27.6529 33.9248 27.5979 34.1006L26.3864 37.9723C26.3007 38.2458 26.0994 38.465 25.8341 38.5736C25.569 38.6824 25.2717 38.667 25.0188 38.5319C24.7059 38.3648 24.5115 38.0405 24.5115 37.6859V33.1847C24.5115 32.8953 24.3758 32.6229 24.1449 32.4484L21.9532 30.7924C21.9403 30.7827 21.9226 30.7693 21.929 30.7314C21.9353 30.6935 21.9564 30.6866 21.9718 30.6815C22.4564 30.5233 22.7208 30.0023 22.5626 29.5178C22.4043 29.0333 21.8835 28.7689 21.3988 28.927C20.7205 29.1484 20.2261 29.7231 20.1085 30.4267C19.9908 31.1304 20.2713 31.8347 20.8405 32.2648L22.6657 33.6439V37.6857C22.6658 38.7229 23.234 39.671 24.149 40.1598Z" fill="white"></path><path d="M33.4885 20.1673C33.681 20.2294 33.8787 20.2597 34.0751 20.2597C34.5542 20.2597 35.0239 20.0792 35.3833 19.741L37.0174 18.2039C37.5156 17.7351 37.7224 17.0571 37.5707 16.3901C37.419 15.7231 36.9393 15.2011 36.2872 14.994L34.2296 14.3404C33.5813 14.1344 32.891 14.2814 32.3827 14.7336C31.8745 15.1857 31.6482 15.8545 31.7773 16.5224L32.201 18.713C32.3331 19.3963 32.8264 19.9534 33.4885 20.1673ZM33.6096 16.1126C33.6366 16.0888 33.6581 16.0954 33.6709 16.0996L35.7285 16.7532C35.7414 16.7573 35.763 16.7642 35.771 16.7995C35.779 16.8349 35.7626 16.8504 35.7527 16.8596L34.1187 18.3968C34.1078 18.407 34.0913 18.4225 34.0559 18.4109C34.0202 18.3995 34.016 18.3773 34.0132 18.3627L33.5895 16.1721C33.587 16.1588 33.5827 16.1366 33.6096 16.1126Z" fill="white"></path><path d="M61.4571 35.9201C59.542 35.0022 57.3246 34.9391 55.3733 35.7472C55.1893 35.8234 55.0106 35.909 54.8346 35.9991C55.203 34.8917 55.4927 33.7578 55.7013 32.6069C57.6204 32.5658 59.4607 31.791 60.8205 30.4313C62.314 28.9379 63.1044 26.8651 62.9891 24.7443C62.9635 24.274 62.5879 23.8985 62.1176 23.8729C59.9959 23.7576 57.9241 24.5481 56.4308 26.0415C56.2917 26.1805 56.1609 26.3261 56.0343 26.4747C55.9511 25.2999 55.7848 24.143 55.5403 23.0107C57.2937 22.2375 58.6942 20.8195 59.4291 19.0456C60.2372 17.0944 60.1742 14.8769 59.2562 12.9617C59.0527 12.5371 58.5618 12.3338 58.1176 12.49C56.1142 13.1951 54.5016 14.7187 53.6935 16.6698C53.6202 16.8467 53.5566 17.0263 53.4977 17.2071C52.9756 16.1655 52.3794 15.163 51.7145 14.2067C53.0363 12.8217 53.7862 10.9773 53.7862 9.05912C53.7862 6.94701 52.8794 4.92251 51.2983 3.50439C50.9478 3.18988 50.4166 3.19 50.066 3.50439C48.4849 4.92251 47.5781 6.94713 47.5781 9.05899C47.5781 9.25476 47.5885 9.44942 47.604 9.64335C46.1476 8.38629 44.529 7.28637 42.7668 6.37681C42.3138 6.14302 41.7572 6.3207 41.5235 6.77351C41.2897 7.22645 41.4672 7.78312 41.9202 8.01691C49.5261 11.9432 54.2511 19.6908 54.2511 28.2363C54.2511 33.4599 52.5293 38.3717 49.2719 42.4406C46.1088 46.3916 41.6715 49.2071 36.7774 50.3685C36.2815 50.4862 35.9749 50.9836 36.0925 51.4794C36.1932 51.9037 36.5718 52.1896 36.9896 52.1896C37.0602 52.1896 37.1319 52.1814 37.2035 52.1643C40.1873 51.4563 43.0137 50.1799 45.5245 48.436C46.9106 49.7639 48.7595 50.5176 50.6822 50.5176C52.7943 50.5176 54.8188 49.6107 56.237 48.0297C56.5513 47.6791 56.5513 47.1479 56.237 46.7974C54.8188 45.2162 52.7942 44.3095 50.6824 44.3095C50.4852 44.3095 50.2892 44.3199 50.0941 44.3356C50.3048 44.0927 50.5114 43.8457 50.7129 43.5941C51.2425 42.9326 51.7354 42.2446 52.1912 41.5346C53.0637 41.8738 53.9848 42.0466 54.9065 42.0466C55.8735 42.0466 56.8404 41.8592 57.7493 41.4827C59.7006 40.6744 61.2241 39.0619 61.929 37.0584C62.085 36.6143 61.8818 36.1236 61.4571 35.9201ZM55.3986 17.3761C55.8923 16.1842 56.786 15.2042 57.9132 14.5934C58.2784 15.8223 58.2175 17.1473 57.7237 18.3392C57.23 19.5312 56.3363 20.5113 55.209 21.1218C54.8439 19.8932 54.9049 18.5682 55.3986 17.3761ZM54.2153 47.4136C53.2198 48.2213 51.9723 48.672 50.6821 48.672C49.392 48.672 48.1445 48.2213 47.1491 47.4136C48.1445 46.6059 49.3921 46.1552 50.6822 46.1552C51.9723 46.1552 53.2197 46.6059 54.2153 47.4136ZM57.7358 27.3465C58.6481 26.4343 59.8489 25.8708 61.1239 25.7379C60.991 27.013 60.4277 28.2138 59.5153 29.1262C58.6029 30.0384 57.4022 30.6019 56.1272 30.7346C56.2601 29.4596 56.8235 28.2589 57.7358 27.3465ZM50.6821 5.52606C51.4898 6.52151 51.9405 7.76909 51.9405 9.05924C51.9405 10.3494 51.4898 11.5968 50.6821 12.5923C49.8744 11.5968 49.4237 10.3494 49.4237 9.05912C49.4237 7.76897 49.8744 6.52163 50.6821 5.52606ZM57.0427 39.7775C55.8506 40.2713 54.5257 40.3322 53.297 39.967C53.9077 38.8399 54.8876 37.9461 56.0796 37.4524C57.2715 36.9586 58.5964 36.8976 59.8253 37.2629C59.2147 38.39 58.2348 39.2837 57.0427 39.7775Z" fill="white"></path><path d="M32.1525 51.2476C31.9795 51.0745 31.7447 50.9773 31.5 50.9773C31.4738 50.9773 31.4477 50.9789 31.4217 50.9811C18.9177 50.9359 8.75876 40.7505 8.75876 28.2362C8.75876 19.6998 13.4765 11.9558 21.0709 8.02638C21.5236 7.79222 21.7006 7.23531 21.4665 6.78274C21.2323 6.33005 20.6754 6.15274 20.2228 6.38714C18.4644 7.29696 16.849 8.39663 15.3954 9.65282C15.4113 9.45582 15.422 9.25796 15.422 9.05899C15.422 6.94713 14.5153 4.92251 12.9341 3.50439C12.5834 3.18988 12.0522 3.19 11.7018 3.50439C10.1207 4.92239 9.21392 6.94701 9.21392 9.05912C9.21392 10.9803 9.96623 12.8273 11.2918 14.2131C10.626 15.1715 10.0291 16.1759 9.50665 17.2197C9.44672 17.0347 9.38175 16.8508 9.30682 16.6698C8.49864 14.7187 6.88611 13.1952 4.88265 12.49C4.43857 12.3337 3.94774 12.5369 3.74409 12.9617C2.82604 14.8768 2.76304 17.0944 3.57121 19.0456C4.30728 20.8224 5.71137 22.2423 7.46911 23.0148C7.22436 24.1492 7.05788 25.3083 6.97495 26.4853C6.84562 26.333 6.71175 26.1839 6.56938 26.0415C5.07608 24.548 3.00273 23.7569 0.882504 23.8728C0.412217 23.8984 0.036676 24.2739 0.0110822 24.7442C-0.104336 26.8649 0.68612 28.9378 2.17967 30.4312C3.54033 31.7919 5.38198 32.5667 7.3025 32.6069C7.5118 33.7687 7.80367 34.9021 8.17048 36.0016C7.99292 35.9105 7.81253 35.824 7.62685 35.7471C5.67569 34.9389 3.45825 35.0019 1.54302 35.92C1.11839 36.1236 0.915111 36.6142 1.07138 37.0584C1.77632 39.0619 3.29977 40.6744 5.25105 41.4827C6.16013 41.8592 7.12679 42.0466 8.09394 42.0466C9.02073 42.0466 9.94728 41.8719 10.8242 41.529C11.4606 42.5156 12.1653 43.4542 12.9322 44.3375C12.7285 44.3206 12.5239 44.3094 12.318 44.3094C12.3179 44.3094 12.318 44.3094 12.3179 44.3094C10.2062 44.3094 8.18155 45.2162 6.76343 46.7972C6.44904 47.1479 6.44904 47.679 6.76343 48.0296C8.18143 49.6107 10.206 50.5175 12.3182 50.5175C14.245 50.5175 16.0974 49.7607 17.4845 48.4277C20.9125 50.8154 24.9738 52.3528 29.3618 52.7335L23.9394 58.1561C23.579 58.5165 23.579 59.1009 23.9394 59.4612C24.1195 59.6413 24.3558 59.7315 24.5919 59.7315C24.828 59.7315 25.0643 59.6414 25.2444 59.4612L31.5001 53.2053L37.7511 59.4562C38.1115 59.8166 38.6958 59.8166 39.0561 59.4562C39.4165 59.0958 39.4165 58.5115 39.0561 58.1512L32.1525 51.2476ZM5.2764 18.3392C4.78261 17.1473 4.7217 15.8223 5.08691 14.5934C6.21415 15.2041 7.10784 16.1842 7.6015 17.3761C8.09529 18.5682 8.1562 19.8931 7.79112 21.1218C6.66388 20.5111 5.77007 19.5312 5.2764 18.3392ZM5.95735 39.7774C4.76526 39.2836 3.78531 38.3899 3.17463 37.2628C4.40363 36.8976 5.72848 36.9585 6.92044 37.4523C8.1124 37.946 9.09235 38.8398 9.70303 39.9669C8.4744 40.3321 7.14918 40.2711 5.95735 39.7774ZM12.3179 5.52594C13.1256 6.52151 13.5763 7.76897 13.5763 9.05899C13.5763 10.3493 13.1256 11.5967 12.3179 12.5922C11.5103 11.5967 11.0595 10.3493 11.0595 9.05912C11.0595 7.76897 11.5102 6.52139 12.3179 5.52594ZM3.48471 29.126C2.57231 28.2137 2.009 27.013 1.87611 25.7379C3.15113 25.8708 4.35207 26.4343 5.26422 27.3464C6.17649 28.2588 6.73993 29.4595 6.87269 30.7345C5.59792 30.6016 4.39698 30.0383 3.48471 29.126ZM12.318 48.6718C11.0279 48.6718 9.7803 48.221 8.78485 47.4133C9.78043 46.6057 11.0279 46.1549 12.3179 46.1549C13.6081 46.1549 14.8556 46.6057 15.8511 47.4133C14.8555 48.2212 13.6081 48.6718 12.318 48.6718Z" fill="white"></path></g><defs><clipPath id="clip0_391_846"><rect width="63" height="63" fill="white"></rect></clipPath></defs></svg>