<svg xmlns="http://www.w3.org/2000/svg" width="63" height="63" viewBox="0 0 63 63" fill="none"><path d="M41.5078 30.5161H21.4925C21.0656 30.5157 20.6563 30.3459 20.3544 30.0441C20.0525 29.7422 19.8827 29.3329 19.8823 28.906V14.7393C19.8823 14.4782 19.986 14.2278 20.1706 14.0432C20.3552 13.8586 20.6056 13.7549 20.8667 13.7549C21.1278 13.7549 21.3782 13.8586 21.5628 14.0432C21.7474 14.2278 21.8511 14.4782 21.8511 14.7393V28.5474H41.1492V14.7393C41.1492 14.4782 41.2529 14.2278 41.4375 14.0432C41.6221 13.8586 41.8725 13.7549 42.1335 13.7549C42.3946 13.7549 42.645 13.8586 42.8296 14.0432C43.0142 14.2278 43.1179 14.4782 43.1179 14.7393V28.906C43.1175 29.3329 42.9477 29.7422 42.6458 30.0441C42.344 30.3459 41.9347 30.5157 41.5078 30.5161Z" fill="white"></path><path d="M31.4999 19.832C31.2903 19.832 31.0825 19.7926 30.8875 19.7157L13.4115 12.8876C13.1074 12.7731 12.8454 12.5687 12.6605 12.3015C12.4755 12.0344 12.3765 11.7172 12.3765 11.3922C12.3765 11.0673 12.4755 10.7501 12.6605 10.4829C12.8454 10.2158 13.1074 10.0113 13.4115 9.89693L30.8885 3.06783C31.2804 2.91523 31.7153 2.91488 32.1075 3.06685L49.5883 9.89693C49.8924 10.0113 50.1544 10.2158 50.3394 10.4829C50.5243 10.7501 50.6234 11.0673 50.6234 11.3922C50.6234 11.7172 50.5243 12.0344 50.3394 12.3015C50.1544 12.5687 49.8924 12.7731 49.5883 12.8876L32.1113 19.7167C31.9165 19.7929 31.7091 19.832 31.4999 19.832ZM31.6038 17.883H31.6047L31.6056 17.884L31.6038 17.883ZM14.9943 11.3918L31.4999 17.8421L48.0055 11.3927L31.4999 4.94238L14.9943 11.3918Z" fill="white"></path><path d="M47.7627 17.3809C47.5016 17.3809 47.2512 17.2771 47.0666 17.0925C46.882 16.9079 46.7783 16.6576 46.7783 16.3965V12.6436C46.7783 12.3825 46.882 12.1321 47.0666 11.9475C47.2512 11.7629 47.5016 11.6592 47.7627 11.6592C48.0238 11.6592 48.2741 11.7629 48.4588 11.9475C48.6434 12.1321 48.7471 12.3825 48.7471 12.6436V16.3965C48.7471 16.6576 48.6434 16.9079 48.4588 17.0925C48.2741 17.2771 48.0238 17.3809 47.7627 17.3809Z" fill="white"></path><path d="M48.7334 21.1339H46.7921C46.3841 21.114 46.0006 20.9335 45.7253 20.6318C45.45 20.3301 45.3052 19.9317 45.3227 19.5236V17.1472C45.3227 16.9666 45.3725 16.7894 45.4665 16.6351C45.5605 16.4808 45.6952 16.3554 45.8557 16.2725L47.3116 15.5217C47.4512 15.4497 47.6059 15.4121 47.763 15.4121C47.92 15.4121 48.0748 15.4497 48.2143 15.5217L49.6702 16.2725C49.8308 16.3554 49.9654 16.4808 50.0595 16.6351C50.1535 16.7894 50.2032 16.9666 50.2032 17.1472V19.5236C50.2206 19.9318 50.0758 20.3302 49.8004 20.6319C49.525 20.9336 49.1414 21.114 48.7334 21.1339ZM47.2915 19.1651H48.2345V17.7476L47.763 17.5045L47.2915 17.7476V19.1651Z" fill="white"></path><path d="M31.5 46.7578C30.5265 46.7578 29.575 46.4692 28.7656 45.9283C27.9562 45.3875 27.3253 44.6188 26.9528 43.7195C26.5803 42.8201 26.4828 41.8305 26.6727 40.8757C26.8626 39.921 27.3314 39.044 28.0197 38.3556C28.708 37.6673 29.585 37.1985 30.5398 37.0086C31.4945 36.8187 32.4842 36.9162 33.3835 37.2887C34.2829 37.6612 35.0516 38.2921 35.5924 39.1015C36.1332 39.9109 36.4219 40.8625 36.4219 41.8359C36.4203 43.1408 35.9013 44.3918 34.9786 45.3145C34.0559 46.2372 32.8049 46.7563 31.5 46.7578ZM31.5 38.8828C30.9159 38.8828 30.345 39.056 29.8593 39.3805C29.3737 39.705 28.9952 40.1662 28.7717 40.7058C28.5482 41.2454 28.4897 41.8392 28.6036 42.4121C28.7176 42.9849 28.9988 43.5111 29.4118 43.9241C29.8248 44.3371 30.351 44.6184 30.9239 44.7323C31.4967 44.8463 32.0905 44.7878 32.6301 44.5643C33.1697 44.3408 33.6309 43.9622 33.9554 43.4766C34.2799 42.991 34.4531 42.42 34.4531 41.8359C34.4523 41.053 34.1409 40.3023 33.5872 39.7487C33.0336 39.1951 32.283 38.8837 31.5 38.8828Z" fill="white"></path><path d="M58.0781 47.25H55.125C54.8639 47.25 54.6135 47.1463 54.4289 46.9617C54.2443 46.7771 54.1406 46.5267 54.1406 46.2656V37.4062C54.1406 37.1452 54.2443 36.8948 54.4289 36.7102C54.6135 36.5256 54.8639 36.4219 55.125 36.4219H58.0781C58.6001 36.4225 59.1005 36.6301 59.4696 36.9992C59.8387 37.3683 60.0463 37.8687 60.0469 38.3906V45.2812C60.0463 45.8032 59.8387 46.3036 59.4696 46.6727C59.1005 47.0418 58.6001 47.2494 58.0781 47.25ZM56.1094 45.2812H58.0796L58.0781 38.3906H56.1094V45.2812Z" fill="white"></path><path d="M7.875 47.25H4.92188C4.39991 47.2494 3.8995 47.0418 3.53042 46.6727C3.16134 46.3036 2.95372 45.8032 2.95312 45.2812V38.3906C2.95372 37.8687 3.16134 37.3683 3.53042 36.9992C3.8995 36.6301 4.39991 36.4225 4.92188 36.4219H7.875C8.13607 36.4219 8.38645 36.5256 8.57106 36.7102C8.75566 36.8948 8.85938 37.1452 8.85938 37.4062V46.2656C8.85938 46.5267 8.75566 46.7771 8.57106 46.9617C8.38645 47.1463 8.13607 47.25 7.875 47.25ZM4.92188 38.3906V45.2812H6.89062V38.3906H4.92188Z" fill="white"></path><path d="M54.1499 48.687C54.1239 48.687 54.0984 48.6861 54.0725 48.6851C48.5863 48.4685 42.9589 48.3275 37.3463 48.2641C37.0852 48.2627 36.8354 48.1576 36.6518 47.972C36.4682 47.7864 36.3658 47.5355 36.3672 47.2744C36.3686 47.0133 36.4736 46.7635 36.6592 46.5799C36.8448 46.3963 37.0958 46.2939 37.3568 46.2953H37.3684C42.9997 46.3587 48.6455 46.501 54.1489 46.7186L54.1407 36.9524C48.6113 37.1773 42.969 37.3186 37.367 37.3763L37.3473 35.4075H37.3571C42.9293 35.3508 48.5516 35.2096 54.0583 34.9884C54.324 34.9797 54.5888 35.0238 54.8373 35.1182C55.0859 35.2125 55.3132 35.3553 55.5061 35.5383C55.6975 35.7206 55.8498 35.94 55.9535 36.1831C56.0573 36.4263 56.1103 36.6881 56.1095 36.9524V46.7202C56.11 46.978 56.0598 47.2334 55.9616 47.4718C55.8634 47.7102 55.7192 47.927 55.5372 48.1096C55.3552 48.2923 55.139 48.4373 54.901 48.5364C54.663 48.6354 54.4077 48.6866 54.1499 48.687Z" fill="white"></path><path d="M8.86471 48.6851C8.35387 48.6845 7.8629 48.487 7.49387 48.1338C7.30239 47.9514 7.15014 47.7319 7.04641 47.4887C6.94269 47.2454 6.88969 46.9836 6.89064 46.7192V36.9514C6.88948 36.6864 6.94228 36.4239 7.04581 36.18C7.14935 35.9361 7.30146 35.7158 7.49288 35.5325C7.68171 35.3479 7.90656 35.2041 8.1534 35.1101C8.40024 35.0162 8.66379 34.9741 8.92761 34.9865C14.4138 35.2031 20.0412 35.3441 25.6538 35.4075C25.9149 35.4089 26.1647 35.514 26.3483 35.6996C26.5319 35.8851 26.6343 36.1361 26.6329 36.3972C26.6315 36.6582 26.5265 36.9081 26.3409 37.0917C26.1553 37.2753 25.9044 37.3777 25.6433 37.3763H25.6318C20.0005 37.3129 14.3547 37.1705 8.85122 36.953L8.85939 46.7192C14.3888 46.4942 20.0312 46.353 25.6331 46.2953L25.6528 48.264H25.643C20.0708 48.3207 14.4486 48.462 8.94179 48.6832C8.91609 48.6841 8.8902 48.6851 8.86471 48.6851Z" fill="white"></path><path d="M29.2403 50.8114C29.0282 50.8121 28.8173 50.7793 28.6154 50.7144C27.9355 50.4259 27.3793 49.9064 27.0452 49.2477C26.9159 49.0187 26.756 48.8085 26.5698 48.6229C26.3314 48.4999 26.0774 48.4099 25.8147 48.3556C25.0917 48.2409 24.4319 47.8758 23.9508 47.3241C23.5754 46.6992 23.4316 45.9622 23.5446 45.242C23.5744 44.9714 23.5666 44.6981 23.5215 44.4296C23.4043 44.2019 23.2572 43.9907 23.0841 43.8019C22.5556 43.276 22.2309 42.5796 22.168 41.8367C22.231 41.0939 22.5557 40.3976 23.0841 39.8718C23.2572 39.683 23.4043 39.4718 23.5215 39.2441C23.5671 38.9757 23.5749 38.7023 23.5446 38.4317C23.4315 37.7119 23.5751 36.9752 23.9503 36.3506C24.4316 35.7984 25.0917 35.4329 25.8152 35.3181C26.0777 35.2639 26.3316 35.1739 26.5698 35.0508C26.756 34.8652 26.9159 34.655 27.0452 34.426C27.3792 33.7674 27.9352 33.248 28.6149 32.9593C29.3186 32.7992 30.0561 32.8903 30.6995 33.217C30.9539 33.3323 31.2234 33.411 31.4998 33.4506C31.7763 33.411 32.0458 33.3323 32.3001 33.217C32.9432 32.8897 33.6808 32.7985 34.3843 32.9593C35.0642 33.2478 35.6204 33.7673 35.9545 34.426C36.0838 34.655 36.2437 34.8652 36.4299 35.0508C36.6683 35.1738 36.9223 35.2638 37.185 35.3181C37.908 35.4328 38.5677 35.7979 39.0489 36.3496C39.4243 36.9745 39.5681 37.7115 39.4551 38.4317C39.4253 38.7023 39.4331 38.9756 39.4782 39.2441C39.5954 39.4718 39.7425 39.683 39.9156 39.8718C40.444 40.3976 40.7687 41.0939 40.8317 41.8367C40.7687 42.5795 40.444 43.2758 39.9156 43.8016C39.7425 43.9904 39.5954 44.2016 39.4782 44.4293C39.4326 44.6977 39.4248 44.9711 39.4551 45.2417C39.5433 45.5982 39.5524 45.9697 39.4817 46.3301C39.411 46.6906 39.2622 47.0311 39.0458 47.3279C38.8293 47.6246 38.5506 47.8704 38.229 48.0479C37.9075 48.2254 37.5509 48.3304 37.1845 48.3553C36.9219 48.4096 36.6681 48.4995 36.4299 48.6226C36.2437 48.8082 36.0838 49.0184 35.9545 49.2474C35.6205 49.906 35.0645 50.4254 34.3848 50.7141C33.681 50.873 32.944 50.7819 32.3001 50.4564C32.0457 50.3413 31.7763 50.263 31.4998 50.2236C31.2234 50.2632 30.9539 50.3419 30.6995 50.4572C30.2389 50.6634 29.7443 50.7835 29.2403 50.8114ZM29.2533 34.8297C29.2423 34.8296 29.2314 34.8306 29.2206 34.8327C29.1019 34.8711 28.8395 35.2767 28.6981 35.495C28.4488 35.9344 28.1199 36.3236 27.7282 36.6427C27.3002 36.9201 26.8245 37.1157 26.3252 37.2196C26.0498 37.2718 25.785 37.3696 25.5417 37.5089C25.4871 37.7797 25.4767 38.0577 25.5109 38.3318C25.5657 38.8416 25.5262 39.3572 25.3942 39.8526C25.2137 40.3183 24.948 40.7464 24.6107 41.1148C24.4093 41.3239 24.2486 41.5687 24.1367 41.8367C24.2486 42.1047 24.4093 42.3495 24.6107 42.5586C24.9482 42.9273 25.2139 43.3556 25.3942 43.8218C25.526 44.3166 25.5654 44.8315 25.5104 45.3407C25.4764 45.6158 25.4872 45.8947 25.5426 46.1664C25.7859 46.3042 26.0501 46.4013 26.3247 46.4538C26.8242 46.5577 27.3 46.7533 27.7282 47.0307C28.1197 47.3499 28.4486 47.7391 28.6981 48.1784C28.8395 48.3967 29.1017 48.8023 29.2245 48.8417C29.4909 48.8033 29.7507 48.7279 29.9964 48.6178C30.4709 48.4051 30.9806 48.282 31.4998 48.2548C32.0191 48.2822 32.5288 48.4054 33.0033 48.6183C33.2496 48.73 33.511 48.8052 33.7791 48.8412C33.8978 48.8028 34.1602 48.3972 34.3016 48.1789C34.5509 47.7395 34.8798 47.3503 35.2715 47.0312C35.6995 46.7538 36.1752 46.5582 36.6745 46.4543C36.9499 46.4021 37.2147 46.3043 37.458 46.165C37.5126 45.8941 37.523 45.6162 37.4888 45.3421C37.4339 44.8323 37.4735 44.3167 37.6055 43.8213C37.786 43.3556 38.0517 42.9275 38.389 42.5591C38.5905 42.3498 38.7512 42.1048 38.863 41.8367C38.7511 41.5687 38.5904 41.3239 38.389 41.1148C38.0515 40.7462 37.7858 40.3178 37.6055 39.8516C37.4737 39.3568 37.4343 38.8419 37.4893 38.3327C37.5233 38.0576 37.5125 37.7787 37.4571 37.507C37.2138 37.3692 36.9496 37.2721 36.675 37.2196C36.1755 37.1157 35.6997 36.9201 35.2715 36.6427C34.8799 36.3235 34.5511 35.9343 34.3016 35.495C34.1602 35.2767 33.898 34.8711 33.7752 34.8317C33.5075 34.8641 33.2468 34.9397 33.0033 35.0556C32.5288 35.2685 32.0191 35.3917 31.4998 35.4191C30.9806 35.3917 30.4708 35.2685 29.9964 35.0556C29.7587 34.9508 29.5092 34.875 29.2533 34.8297Z" fill="white"></path><path d="M36.4219 60.5393C36.2966 60.5394 36.1724 60.5156 36.0561 60.4691L31.5 58.6465L26.9439 60.4691C26.7945 60.5289 26.6328 60.5512 26.4728 60.534C26.3128 60.5168 26.1595 60.4606 26.0262 60.3704C25.893 60.2801 25.7839 60.1586 25.7085 60.0165C25.6331 59.8743 25.5937 59.7159 25.5938 59.5549V47.5554C25.5938 47.4005 25.6304 47.2477 25.7006 47.1096C25.7708 46.9715 25.8727 46.8519 25.9978 46.7605C26.123 46.6692 26.2679 46.6087 26.4209 46.5839C26.5738 46.5592 26.7305 46.5709 26.8781 46.6181C27.1865 46.7079 27.4778 46.8486 27.7399 47.0344C28.1259 47.3528 28.4504 47.7392 28.6973 48.1745C28.8492 48.41 29.1034 48.8045 29.2328 48.8474C29.496 48.8015 29.7528 48.7247 29.9979 48.6185C30.4717 48.4052 30.9811 48.2817 31.5 48.2543C32.0189 48.2817 32.5283 48.4052 33.0021 48.6185C33.2493 48.7318 33.5121 48.8073 33.7817 48.8426C33.9913 48.6504 34.1674 48.4246 34.3027 48.1745C34.5517 47.7359 34.8796 47.3471 35.2698 47.0276C35.5292 46.8449 35.8172 46.7065 36.1219 46.6181C36.2695 46.5709 36.4262 46.5592 36.5791 46.5839C36.7321 46.6087 36.877 46.6692 37.0022 46.7605C37.1273 46.8519 37.2292 46.9715 37.2994 47.1096C37.3696 47.2477 37.4062 47.4005 37.4062 47.5554V59.5549C37.4062 59.816 37.3025 60.0664 37.1179 60.251C36.9333 60.4356 36.6829 60.5393 36.4219 60.5393ZM31.5 56.6018C31.6253 56.6017 31.7495 56.6255 31.8658 56.672L35.4375 58.1014V49.9698C35.1645 50.3101 34.8022 50.5677 34.3911 50.7139C33.6848 50.8768 32.9436 50.7856 32.2978 50.4562C32.0442 50.3413 31.7756 50.2628 31.5 50.2231C31.2244 50.263 30.9558 50.3416 30.7022 50.4567C30.0602 50.7848 29.3236 50.8773 28.6204 50.7182C28.205 50.5715 27.8387 50.312 27.5625 49.9688V58.1014L31.1342 56.672C31.2505 56.6255 31.3747 56.6017 31.5 56.6018Z" fill="white"></path></svg>