<svg xmlns="http://www.w3.org/2000/svg" width="63" height="63" viewBox="0 0 63 63" fill="none"><g clip-path="url(#clip0_391_866)"><path d="M60.826 20.7917L44.4766 12.9289C44.0174 12.7079 43.4659 12.9012 43.245 13.3606C43.0241 13.8199 43.2173 14.3713 43.6767 14.5922L60.0262 22.4549C60.7323 22.7944 61.154 23.4648 61.1542 24.2481C61.1543 25.0321 60.7326 25.7032 60.026 26.0433L44.0571 33.7238L35.3165 26.2858C36.0757 25.7519 36.5252 25.0452 36.5252 24.2487C36.5252 22.5006 34.3649 21.1825 31.5001 21.1825C28.6353 21.1825 26.4749 22.5007 26.4749 24.2487C26.4749 25.9968 28.6353 27.315 31.5001 27.315C32.1888 27.315 32.8361 27.2381 33.4232 27.098L42.2376 34.5988L34.8395 38.1571C32.7173 39.1779 30.2829 39.1779 28.1607 38.1571L2.97395 26.0435C2.26716 25.7033 1.84548 25.0322 1.8456 24.2482C1.84572 23.4648 2.26741 22.7946 2.9737 22.4549L28.1604 10.3409C30.2826 9.32005 32.717 9.32017 34.8392 10.3409L39.8473 12.7501C40.3066 12.9713 40.858 12.7779 41.079 12.3186C41.2999 11.8593 41.1067 11.3079 40.6475 11.0869L35.6394 8.67749C33.0088 7.41219 29.9911 7.41219 27.3605 8.67749L2.17401 20.7916C0.833405 21.436 0.000369267 22.7603 1.22652e-07 24.2478C-0.000369022 25.7358 0.832543 27.0611 2.17389 27.7066L11.2254 32.0602V41.9558C11.2254 43.8556 12.2323 45.6913 14.1372 47.2645C14.3093 47.4066 14.5175 47.4758 14.7243 47.4758C14.9902 47.4758 15.2539 47.3615 15.4364 47.1406C15.761 46.7476 15.7055 46.1659 15.3125 45.8413C14.2899 44.9969 13.071 43.6373 13.071 41.9558V32.948L27.3605 39.8207C28.676 40.4536 30.0877 40.7698 31.4999 40.7698C32.9119 40.7698 34.3243 40.4533 35.6394 39.8207L42.9939 36.2835V45.5582C41.6897 46.0188 41.0042 47.4738 40.6439 49.1357C37.8673 49.8659 34.7271 50.2505 31.5221 50.2505C26.7539 50.2505 22.2152 49.4087 18.7424 47.8801C18.2758 47.6748 17.7312 47.8864 17.526 48.353C17.3206 48.8195 17.5324 49.3641 17.9989 49.5694C21.7008 51.199 26.5034 52.0964 31.5221 52.0964C34.5963 52.0964 37.6199 51.7561 40.3547 51.1091C40.2445 52.3389 40.2443 53.5177 40.2443 54.3496C40.2443 54.8593 40.6575 55.2725 41.1672 55.2725H46.6655C47.1752 55.2725 47.5884 54.8593 47.5884 54.3496C47.5884 52.9353 47.5881 50.5181 47.0461 48.5531C50.1318 46.7396 51.8202 44.4167 51.8202 41.9558V32.0385L60.8264 27.7069C62.1675 27.0614 63.0004 25.7361 63 24.2481C62.9995 22.7603 62.1665 21.4361 60.826 20.7917ZM28.3204 24.249C28.3204 23.8187 29.5275 23.0285 31.4998 23.0285C33.4722 23.0285 34.6793 23.8187 34.6793 24.249C34.6793 24.6793 33.4722 25.4695 31.4998 25.4695C29.5275 25.4695 28.3204 24.6793 28.3204 24.249ZM42.0988 53.4265C42.1981 48.3657 43.124 47.2581 43.9102 47.2525C43.9124 47.2525 43.9145 47.2528 43.9167 47.2528C43.9187 47.2528 43.9207 47.2526 43.9226 47.2526C44.4546 47.2568 44.8249 47.7846 45.0805 48.45C45.0825 48.4549 45.0841 48.4598 45.086 48.4647C45.2303 48.8437 45.3378 49.2659 45.4168 49.6611C45.6657 50.9066 45.7244 52.3191 45.7382 53.4266H42.0988V53.4265ZM49.9744 41.9556C49.9744 43.6832 48.6874 45.3936 46.3281 46.832C45.954 46.2348 45.4688 45.7809 44.8396 45.5584V35.3958L49.9744 32.9261V41.9556Z" fill="white"></path></g><defs><clipPath id="clip0_391_866"><rect width="63" height="63" fill="white"></rect></clipPath></defs></svg>